HIERARCHY
ROOT Hips
{
	OFFSET 0.000000 100.481300 0.000000
	CHANNELS 6 Xposition Yposition Zposition Xrotation Yrotation Zrotation
	JOINT Spine
	{
		OFFSET -0.279200 12.230698 -2.892100
		CHANNELS 3 Xrotation Yrotation Zrotation
		JOINT Spine1
		{
			OFFSET -0.325700 14.269203 -3.374200
			CHANNELS 3 Xrotation Yrotation Zrotation
			JOINT Spine2
			{
				OFFSET -0.372300 16.307602 -0.352600
				CHANNELS 3 Xrotation Yrotation Zrotation
				JOINT Neck
				{
					OFFSET -0.418800 17.814194 8.416900
					CHANNELS 3 Xrotation Yrotation Zrotation
					JOINT Head
					{
						OFFSET 0.000000 7.031097 3.806800
						CHANNELS 3 Xrotation Yrotation Zrotation
						JOINT HeadTop_End
						{
							OFFSET 0.000000 24.646606 12.978600
							CHANNELS 3 Xrotation Yrotation Zrotation
							End Site
							{
								OFFSET 0.000000 27.854965 0.000000
							}
						}
					}
				}
				JOINT LeftShoulder
				{
					OFFSET 16.952999 14.495407 -7.737500
					CHANNELS 3 Xrotation Yrotation Zrotation
					JOINT LeftArm
					{
						OFFSET 9.308998 -2.777710 0.208600
						CHANNELS 3 Xrotation Yrotation Zrotation
						JOINT LeftForeArm
						{
							OFFSET 29.972298 0.000000 0.000000
							CHANNELS 3 Xrotation Yrotation Zrotation
							JOINT LeftHand
							{
								OFFSET 26.026505 0.000000 0.000000
								CHANNELS 3 Xrotation Yrotation Zrotation
								JOINT LeftHandThumb1
								{
									OFFSET 12.240501 -7.147949 9.207150
									CHANNELS 3 Xrotation Yrotation Zrotation
									JOINT LeftHandThumb2
									{
										OFFSET 4.138618 -2.389435 2.389433
										CHANNELS 3 Xrotation Yrotation Zrotation
										JOINT LeftHandThumb3
										{
											OFFSET 2.726913 -1.574387 1.574386
											CHANNELS 3 Xrotation Yrotation Zrotation
											JOINT LeftHandThumb4
											{
												OFFSET 3.941010 -2.275345 2.275342
												CHANNELS 3 Xrotation Yrotation Zrotation
												End Site
												{
													OFFSET -0.005798 5.087799 0.009903
												}
											}
										}
									}
								}
								JOINT LeftHandIndex1
								{
									OFFSET 24.424698 -1.985611 5.953459
									CHANNELS 3 Xrotation Yrotation Zrotation
									JOINT LeftHandIndex2
									{
										OFFSET 6.426697 0.000000 0.000000
										CHANNELS 3 Xrotation Yrotation Zrotation
										JOINT LeftHandIndex3
										{
											OFFSET 5.337898 0.000000 0.000000
											CHANNELS 3 Xrotation Yrotation Zrotation
											JOINT LeftHandIndex4
											{
												OFFSET 4.409401 0.000000 0.000000
												CHANNELS 3 Xrotation Yrotation Zrotation
												End Site
												{
													OFFSET 0.000000 4.409363 0.014373
												}
											}
										}
									}
								}
								JOINT LeftHandMiddle1
								{
									OFFSET 23.810104 0.000000 0.000000
									CHANNELS 3 Xrotation Yrotation Zrotation
									JOINT LeftHandMiddle2
									{
										OFFSET 7.176498 0.000000 0.000000
										CHANNELS 3 Xrotation Yrotation Zrotation
										JOINT LeftHandMiddle3
										{
											OFFSET 6.774902 0.000000 0.000000
											CHANNELS 3 Xrotation Yrotation Zrotation
											JOINT LeftHandMiddle4
											{
												OFFSET 5.403328 0.000000 0.000000
												CHANNELS 3 Xrotation Yrotation Zrotation
												End Site
												{
													OFFSET -0.027702 5.403244 0.017414
												}
											}
										}
									}
								}
								JOINT LeftHandRing1
								{
									OFFSET 22.908401 -0.839279 -6.020567
									CHANNELS 3 Xrotation Yrotation Zrotation
									JOINT LeftHandRing2
									{
										OFFSET 6.337502 0.000000 0.000000
										CHANNELS 3 Xrotation Yrotation Zrotation
										JOINT LeftHandRing3
										{
											OFFSET 5.779297 0.000000 0.000000
											CHANNELS 3 Xrotation Yrotation Zrotation
											JOINT LeftHandRing4
											{
												OFFSET 4.965698 0.000000 0.000000
												CHANNELS 3 Xrotation Yrotation Zrotation
												End Site
												{
													OFFSET 0.000000 4.965668 0.016186
												}
											}
										}
									}
								}
								JOINT LeftHandPinky1
								{
									OFFSET 20.037003 -1.530319 -10.950146
									CHANNELS 3 Xrotation Yrotation Zrotation
									JOINT LeftHandPinky2
									{
										OFFSET 5.254700 0.000000 0.000000
										CHANNELS 3 Xrotation Yrotation Zrotation
										JOINT LeftHandPinky3
										{
											OFFSET 4.810204 0.000000 0.000000
											CHANNELS 3 Xrotation Yrotation Zrotation
											JOINT LeftHandPinky4
											{
												OFFSET 3.647202 0.000000 0.000000
												CHANNELS 3 Xrotation Yrotation Zrotation
												End Site
												{
													OFFSET 0.000000 3.647186 0.011889
												}
											}
										}
									}
								}
							}
						}
					}
				}
				JOINT RightShoulder
				{
					OFFSET -15.141001 14.495407 -7.737500
					CHANNELS 3 Xrotation Yrotation Zrotation
					JOINT RightArm
					{
						OFFSET -9.308998 -2.777710 0.208500
						CHANNELS 3 Xrotation Yrotation Zrotation
						JOINT RightForeArm
						{
							OFFSET -29.972300 0.000000 0.000000
							CHANNELS 3 Xrotation Yrotation Zrotation
							JOINT RightHand
							{
								OFFSET -26.026505 0.000000 0.000000
								CHANNELS 3 Xrotation Yrotation Zrotation
								JOINT RightHandThumb1
								{
									OFFSET -12.240601 -7.148026 9.207092
									CHANNELS 3 Xrotation Yrotation Zrotation
									JOINT RightHandThumb2
									{
										OFFSET -4.138618 -2.389435 2.389433
										CHANNELS 3 Xrotation Yrotation Zrotation
										JOINT RightHandThumb3
										{
											OFFSET -2.726974 -1.574417 1.574421
											CHANNELS 3 Xrotation Yrotation Zrotation
											JOINT RightHandThumb4
											{
												OFFSET -3.941010 -2.275345 2.275343
												CHANNELS 3 Xrotation Yrotation Zrotation
												End Site
												{
													OFFSET 0.005814 5.087799 0.009927
												}
											}
										}
									}
								}
								JOINT RightHandIndex1
								{
									OFFSET -24.424698 -1.985657 5.953444
									CHANNELS 3 Xrotation Yrotation Zrotation
									JOINT RightHandIndex2
									{
										OFFSET -6.426697 0.000000 0.000000
										CHANNELS 3 Xrotation Yrotation Zrotation
										JOINT RightHandIndex3
										{
											OFFSET -5.337898 0.000000 0.000000
											CHANNELS 3 Xrotation Yrotation Zrotation
											JOINT RightHandIndex4
											{
												OFFSET -4.409401 0.000000 0.000000
												CHANNELS 3 Xrotation Yrotation Zrotation
												End Site
												{
													OFFSET 0.000000 4.409363 0.014408
												}
											}
										}
									}
								}
								JOINT RightHandMiddle1
								{
									OFFSET -23.810097 0.000000 0.000000
									CHANNELS 3 Xrotation Yrotation Zrotation
									JOINT RightHandMiddle2
									{
										OFFSET -7.176498 0.000000 0.000000
										CHANNELS 3 Xrotation Yrotation Zrotation
										JOINT RightHandMiddle3
										{
											OFFSET -6.774902 0.000000 0.000000
											CHANNELS 3 Xrotation Yrotation Zrotation
											JOINT RightHandMiddle4
											{
												OFFSET -5.403328 0.000000 0.000000
												CHANNELS 3 Xrotation Yrotation Zrotation
												End Site
												{
													OFFSET 0.027702 5.403244 0.017457
												}
											}
										}
									}
								}
								JOINT RightHandRing1
								{
									OFFSET -22.908302 -0.839325 -6.020576
									CHANNELS 3 Xrotation Yrotation Zrotation
									JOINT RightHandRing2
									{
										OFFSET -6.337502 0.000000 0.000000
										CHANNELS 3 Xrotation Yrotation Zrotation
										JOINT RightHandRing3
										{
											OFFSET -5.779297 0.000000 0.000000
											CHANNELS 3 Xrotation Yrotation Zrotation
											JOINT RightHandRing4
											{
												OFFSET -4.965698 0.000000 0.000000
												CHANNELS 3 Xrotation Yrotation Zrotation
												End Site
												{
													OFFSET 0.000000 4.965668 0.016226
												}
											}
										}
									}
								}
								JOINT RightHandPinky1
								{
									OFFSET -20.037003 -1.530334 -10.950259
									CHANNELS 3 Xrotation Yrotation Zrotation
									JOINT RightHandPinky2
									{
										OFFSET -5.254700 0.000000 0.000000
										CHANNELS 3 Xrotation Yrotation Zrotation
										JOINT RightHandPinky3
										{
											OFFSET -4.810204 0.000000 0.000000
											CHANNELS 3 Xrotation Yrotation Zrotation
											JOINT RightHandPinky4
											{
												OFFSET -3.647202 0.000000 0.000000
												CHANNELS 3 Xrotation Yrotation Zrotation
												End Site
												{
													OFFSET 0.000000 3.647186 0.011917
												}
											}
										}
									}
								}
							}
						}
					}
				}
			}
		}
	}
	JOINT LeftUpLeg
	{
		OFFSET 15.427100 -6.655098 0.678600
		CHANNELS 3 Xrotation Yrotation Zrotation
		JOINT LeftLeg
		{
			OFFSET 4.081073 -39.591068 13.024000
			CHANNELS 3 Xrotation Yrotation Zrotation
			JOINT LeftFoot
			{
				OFFSET -4.081074 -37.707932 -15.979700
				CHANNELS 3 Xrotation Yrotation Zrotation
				JOINT LeftToeBase
				{
					OFFSET 5.346399 -15.068900 20.645000
					CHANNELS 3 Xrotation Yrotation Zrotation
					JOINT LeftToe_End
					{
						OFFSET 2.754700 0.931300 11.300900
						CHANNELS 3 Xrotation Yrotation Zrotation
						End Site
						{
							OFFSET 0.000000 11.669021 0.000000
						}
					}
				}
			}
		}
	}
	JOINT RightUpLeg
	{
		OFFSET -15.569500 -6.655098 0.678600
		CHANNELS 3 Xrotation Yrotation Zrotation
		JOINT RightLeg
		{
			OFFSET -4.081825 -39.591045 13.023800
			CHANNELS 3 Xrotation Yrotation Zrotation
			JOINT RightFoot
			{
				OFFSET 4.081824 -37.707954 -15.979600
				CHANNELS 3 Xrotation Yrotation Zrotation
				JOINT RightToeBase
				{
					OFFSET -5.346400 -15.068900 20.645000
					CHANNELS 3 Xrotation Yrotation Zrotation
					JOINT RightToe_End
					{
						OFFSET -2.754700 0.931300 11.300900
						CHANNELS 3 Xrotation Yrotation Zrotation
						End Site
						{
							OFFSET 0.000000 11.669021 0.000000
						}
					}
				}
			}
		}
	}
}
MOTION
Frames: 5
Frame Time: 0.033333
-1.699870 59.835045 7.786950 -0.903279 -17.551459 -0.653279 55.169514 -3.638052 6.884859 7.038415 -0.195328 0.499753 7.039144 -0.217951 0.475503 -16.392314 2.098864 -2.496626 -18.858892 3.568690 13.866181 0.000000 0.000001 -0.000001 13.745049 -25.137782 22.867646 -111.707102 -14.294112 -35.812311 0.000131 -73.372221 0.000133 -123.203280 -4.443078 32.026634 4.709226 9.560380 3.111989 19.473195 -1.474917 7.636923 -4.536189 -9.613109 1.492962 0.000001 -0.000006 0.000000 -0.212814 3.933715 -36.747111 2.942145 5.078895 -60.144610 0.513685 2.400826 -24.150502 0.000002 0.000000 -0.000001 0.405912 5.507042 -52.453172 3.387145 5.308630 -65.057443 0.282017 1.797454 -17.832393 -0.000001 0.000003 0.000002 -0.074389 5.736781 -61.061434 4.055033 5.569506 -72.094928 0.582663 2.548970 -25.748000 -0.000002 -0.000001 0.000001 -6.565577 4.545129 -72.425236 3.299639 5.267225 -64.107807 0.175343 1.424014 -14.038886 0.000000 -0.000001 -0.000002 0.397511 29.055375 10.523041 -74.741312 44.831279 42.427192 0.000123 109.277037 -0.000139 -36.427380 -34.051703 -23.719907 8.377134 -4.904135 11.021997 21.620226 -18.183871 -18.379240 -0.702892 -49.821220 -32.535162 -0.000000 0.000003 0.000002 -0.920036 1.683595 12.434966 0.748102 -2.533496 32.898303 0.615663 -2.316053 29.767822 0.000000 0.000000 -0.000001 3.413060 -7.186261 51.650249 6.296818 -4.359565 110.634707 0.248717 -1.503051 18.790250 -0.000000 -0.000000 0.000000 -3.349035 -2.600422 57.010558 5.440862 -4.590895 99.698168 1.689397 -3.590708 50.382245 0.000000 -0.000000 0.000001 -3.996441 -3.303954 64.593857 4.058858 -4.618674 82.610510 2.315561 -4.026789 59.787214 0.000000 -0.000000 0.000001 -72.340419 11.428445 9.146485 105.859073 5.097417 2.349082 8.415690 -0.999124 7.458775 -20.470973 0.216114 -1.300425 -0.000002 0.000000 -0.000000 -65.505175 -4.199007 9.851828 80.331344 -9.852329 -10.593203 -12.783701 -15.044047 5.159720 -12.438114 -0.000003 0.000005 -0.000001 0.000003 0.000000 
-1.691959 61.247353 12.504153 -0.989608 -17.591975 0.102112 55.262384 -4.235688 6.144793 7.073295 -0.250510 0.437604 7.073559 -0.271796 0.415056 -16.290512 2.173436 -2.637035 -19.097086 3.534027 14.300855 -0.000001 -0.000002 0.000003 13.180490 -25.333015 22.701759 -112.016516 -14.370581 -36.652588 0.000152 -72.855067 0.000129 -122.290384 -3.783293 32.416382 4.712302 9.556639 3.104095 19.472173 -1.472344 7.638994 -4.536012 -9.613077 1.492347 0.000001 -0.000004 0.000001 -0.214247 3.931958 -36.749348 2.942121 5.078889 -60.144528 0.513661 2.400796 -24.150027 0.000002 0.000002 -0.000001 0.410512 5.510625 -52.454135 3.387216 5.308650 -65.058262 0.282031 1.797505 -17.832826 -0.000001 -0.000001 0.000001 -0.074693 5.736620 -61.061563 4.055325 5.569601 -72.097838 0.582709 2.549056 -25.749007 0.000001 0.000001 0.000001 -6.561075 4.545737 -72.421179 3.300286 5.267524 -64.114986 0.175354 1.424069 -14.039446 -0.000001 -0.000001 -0.000002 0.389916 28.961324 10.561075 -74.958280 44.718331 42.553366 -0.000012 109.232688 0.000006 -36.557351 -33.819723 -23.886252 8.366353 -4.907312 11.029550 21.591980 -18.184697 -18.389726 -0.710397 -49.801921 -32.557282 -0.000001 0.000000 0.000003 -0.920780 1.688448 12.431828 0.749326 -2.535345 32.925873 0.616225 -2.317105 29.782442 0.000000 0.000000 -0.000000 3.411620 -7.184544 51.663093 6.296758 -4.359595 110.634018 0.248735 -1.503067 18.790252 -0.000001 -0.000000 -0.000000 -3.349676 -2.601800 57.023443 5.440516 -4.590962 99.693810 1.688818 -3.590224 50.372799 0.000000 0.000001 0.000001 -3.996795 -3.305664 64.606998 4.057898 -4.618541 82.598803 2.315247 -4.026621 59.782829 -0.000000 -0.000000 0.000002 -78.198269 10.012235 8.182544 98.441030 4.148526 3.068543 11.614643 -0.977825 6.775448 -11.897036 0.002468 -0.574923 0.000001 0.000000 -0.000000 -60.274985 -3.023644 8.545703 81.908612 -8.938850 -9.776156 -19.435998 -16.014567 2.131225 -13.138741 -0.000020 -0.000011 -0.000001 -0.000001 -0.000000 
-1.944901 62.431885 16.636339 -1.266956 -17.491329 0.815262 55.372665 -4.895181 5.605533 7.099812 -0.289747 0.399099 7.099823 -0.309491 0.377544 -16.019292 2.246515 -2.757084 -19.431680 3.538349 14.608518 -0.000000 0.000001 -0.000002 12.599645 -25.509452 22.516820 -111.963172 -14.223067 -37.404284 -0.000171 -72.541841 -0.000181 -121.586875 -3.308029 32.701375 4.721387 9.545548 3.080728 19.469161 -1.464751 7.645144 -4.535534 -9.613058 1.490504 0.000001 0.000002 -0.000001 -0.218464 3.926749 -36.755919 2.942110 5.078864 -60.144125 0.513611 2.400662 -24.148668 0.000000 0.000001 -0.000002 0.424138 5.521236 -52.457055 3.387428 5.308759 -65.060564 0.282073 1.797619 -17.834085 0.000002 -0.000001 0.000003 -0.075669 5.736124 -61.062035 4.056142 5.569887 -72.106355 0.582842 2.549330 -25.751956 0.000001 -0.000003 0.000001 -6.547707 4.547525 -72.409233 3.302202 5.268464 -64.135989 0.175405 1.424234 -14.041152 -0.000002 -0.000002 -0.000002 0.380076 28.916402 10.599217 -74.893325 44.532454 42.517839 0.000048 109.296305 -0.000045 -36.654046 -33.751066 -24.043173 8.334361 -4.916718 11.052023 21.508409 -18.187035 -18.420844 -0.732523 -49.744797 -32.622630 0.000001 0.000003 0.000002 -0.923001 1.702867 12.422577 0.752929 -2.540935 33.007521 0.617984 -2.320145 29.825664 0.000000 0.000001 -0.000001 3.407316 -7.179461 51.701093 6.296599 -4.359644 110.632098 0.248714 -1.503071 18.790238 0.000000 0.000000 -0.000001 -3.351547 -2.605821 57.061617 5.439490 -4.591141 99.680819 1.687072 -3.588758 50.344860 0.000000 0.000001 0.000001 -3.997888 -3.310751 64.645930 4.055085 -4.618181 82.564003 2.314334 -4.026099 59.769824 0.000000 0.000000 0.000001 -80.591383 9.796327 6.664615 89.499309 2.510345 3.636199 12.693600 0.769406 7.034149 -12.779038 -0.000005 0.000002 0.000000 -0.000001 -0.000000 -55.067765 -2.490986 7.493798 82.729403 -9.692102 -10.020521 -25.005852 -16.053941 0.255721 -14.044141 -0.000009 0.000012 0.000001 -0.000002 -0.000001 
-2.237793 63.292938 20.298536 -1.358832 -17.383021 1.583882 55.239886 -5.515297 5.143899 7.091430 -0.293913 0.385028 7.091370 -0.312280 0.363591 -15.696027 2.290092 -2.745981 -19.670229 3.708614 14.639187 -0.000001 0.000000 -0.000001 12.002539 -25.667211 22.313029 -111.704827 -13.861800 -38.164194 0.000080 -72.388667 0.000054 -121.008494 -2.934341 32.928011 4.736349 9.527330 3.042278 19.464215 -1.452262 7.655249 -4.534716 -9.613025 1.487467 0.000002 -0.000003 0.000001 -0.225413 3.918184 -36.766744 2.942034 5.078838 -60.143586 0.513512 2.400444 -24.146445 0.000000 0.000000 -0.000002 0.446543 5.538654 -52.461850 3.387783 5.308908 -65.064423 0.282131 1.797827 -17.836165 0.000000 0.000002 0.000000 -0.077240 5.735307 -61.062786 4.057516 5.570315 -72.120521 0.583062 2.549789 -25.756855 0.000001 0.000003 0.000002 -6.525742 4.550524 -72.389548 3.305389 5.270002 -64.170645 0.175474 1.424523 -14.043926 -0.000001 -0.000002 -0.000005 0.362994 28.930677 10.655153 -74.621060 44.329499 42.305652 -0.000090 109.462340 0.000085 -36.740612 -33.876796 -24.230624 8.281749 -4.932242 11.088932 21.370796 -18.190655 -18.472009 -0.768828 -49.650725 -32.730062 0.000000 -0.000001 0.000002 -0.926635 1.726584 12.407303 0.758901 -2.550061 33.141874 0.620864 -2.325164 29.896797 0.000000 0.000000 -0.000001 3.400210 -7.171120 51.763599 6.296374 -4.359746 110.628963 0.248724 -1.503062 18.790200 -0.000000 -0.000000 0.000000 -3.354616 -2.612472 57.124362 5.437789 -4.591426 99.659461 1.684192 -3.586388 50.298876 0.000000 0.000001 -0.000001 -3.999646 -3.319154 64.709943 4.050503 -4.617568 82.506793 2.312814 -4.025220 59.748371 0.000000 0.000001 0.000003 -81.003865 10.236482 5.275653 79.769711 0.688449 3.804661 12.334520 1.748083 7.987667 -13.305388 -0.000004 0.000001 0.000000 0.000001 0.000000 -51.111265 -1.849911 6.156342 83.637306 -9.745387 -9.981531 -28.491378 -16.526433 -0.402934 -15.143453 -0.000026 -0.000015 -0.000000 -0.000002 0.000000 
-2.435951 64.030960 23.573734 -1.045295 -17.335456 2.309770 54.728455 -5.970181 4.765624 7.039649 -0.267386 0.391224 7.039701 -0.284696 0.369699 -15.408663 2.360116 -2.771095 -19.866877 3.980601 14.590978 0.000000 0.000000 0.000002 11.389234 -25.806289 22.090606 -111.251125 -13.371930 -38.819476 -0.000016 -72.398701 -0.000035 -120.595391 -2.671578 33.142759 4.757024 9.502064 2.989132 19.457375 -1.434986 7.669234 -4.533591 -9.612970 1.483293 -0.000001 0.000001 -0.000001 -0.235036 3.906313 -36.781709 2.941955 5.078808 -60.142780 0.513383 2.400167 -24.143334 -0.000001 0.000000 -0.000001 0.477544 5.562751 -52.468482 3.388281 5.309155 -65.069710 0.282228 1.798102 -17.839081 -0.000000 0.000004 -0.000003 -0.079407 5.734179 -61.063797 4.059432 5.570902 -72.140082 0.583352 2.550393 -25.763581 0.000001 0.000003 0.000001 -6.495375 4.554657 -72.362364 3.309801 5.272131 -64.218566 0.175560 1.424882 -14.047781 -0.000002 0.000001 -0.000001 0.326809 28.978249 10.777123 -74.297671 44.175857 42.141355 -0.000002 109.668366 -0.000006 -36.723813 -34.193645 -24.369109 8.209081 -4.953782 11.140010 21.180536 -18.195259 -18.542710 -0.818747 -49.520518 -32.878266 -0.000001 0.000000 0.000001 -0.931644 1.759374 12.386221 0.767189 -2.562725 33.327645 0.624860 -2.332098 29.995189 0.000000 -0.000000 -0.000001 3.390382 -7.159628 51.850042 6.296037 -4.359886 110.624537 0.248718 -1.503048 18.790204 -0.000001 0.000000 -0.000000 -3.358817 -2.621678 57.211147 5.435409 -4.591819 99.629955 1.680216 -3.583086 50.235270 -0.000000 -0.000000 0.000001 -4.002050 -3.330815 64.798503 4.044142 -4.616739 82.427672 2.310725 -4.023981 59.718755 -0.000000 -0.000000 0.000001 -80.135789 10.876499 4.235954 69.569022 -1.155941 3.571420 10.474329 1.168170 8.586188 -13.427046 0.000005 0.000001 0.000000 0.000000 -0.000000 -48.163537 -1.423102 4.920396 84.282957 -10.058743 -10.072385 -30.907077 -16.765758 -0.891240 -16.305963 -0.000004 0.000003 -0.000000 0.000000 -0.000000 
